<?xml version="1.0" encoding="UTF-8"?><svg xmlns="http://www.w3.org/2000/svg" xmlns:xlink="http://www.w3.org/1999/xlink" height="119.0" preserveAspectRatio="xMidYMid meet" version="1.0" viewBox="-0.0 0.0 127.5 119.0" width="127.5" zoomAndPan="magnify"><g><g><g><g><g><path d="M121.73,41.733c-0.46-2.58,1.34-4.28,1.08-7.53c-0.25-3.25-9.96-22.84-25.31-23.56 c-3.87-0.18-7.3,0.65-10.28,2.05c-8.84,4.15-13.81,13.3-15.08,15.99c0,0,12.81-0.48,20.27,3.37 c7.46,3.85,18.94,30.38,19.61,33.36c0.24,1.07,0.08,2.33-0.23,3.5h0.01c0,0,3.46-2.11,5.36-1.02c1.89,1.08,2.59,5.1,1.89,6.67 c-0.71,1.57-5,0.59-6.21,2.39c-1.21,1.79,1.79,2.54,1.22,4.82c-0.57,2.29-14.65,10.6-15.96,12.87 c-1.31,2.28,0.7,3.79,0.28,5.54s-3.63,2.83-4.3,5.15c-0.67,2.32,0.48,4.17-0.12,5.42c-0.61,1.25-2.29,1.01-3.24,2.47 c-0.9,1.38-0.94,4.5-0.94,4.79H125v-40.43v-31.01C125,46.573,122.19,44.303,121.73,41.733z" fill="#47394f"/></g><g><path d="M117.16,67.893c-1.9-1.09-5.36,1.02-5.36,1.02h-0.01c0.31-1.17,0.47-2.43,0.23-3.5 c-0.67-2.98-12.15-29.51-19.61-33.36c-7.46-3.85-20.27-3.37-20.27-3.37c-1.7,3.61-4.8,10.3-4.8,15.15 c0,2.99,0.91,7.93,1.67,11.53c0.62,2.95,2.55,5.86,5.25,7.23c1.46,0.73,3.25,1.4,5.34,1.7c0.55,0.09,1.13,0.14,1.72,0.17 c7.26,0.31,10.67-2.73,15.82,1.13c2.4,1.8,3.5,4.52,3.99,6.92c0.57,2.77,0.33,5.1,0.33,5.1c-1.74,1.58-3.14,3.3-3.96,4.68 c-1.62,2.73-2.95,10.2-3.47,13.43c-0.17,1.04-0.48,2.05-0.91,3.02l-6.09,13.58l-2.55,5.69h5.3c0-0.29,0.04-3.41,0.94-4.79 c0.95-1.46,2.63-1.22,3.24-2.47c0.6-1.25-0.55-3.1,0.12-5.42c0.67-2.32,3.88-3.4,4.3-5.15s-1.59-3.26-0.28-5.54 c1.31-2.27,15.39-10.58,15.96-12.87c0.57-2.28-2.43-3.03-1.22-4.82c1.21-1.8,5.5-0.82,6.21-2.39 C119.75,72.993,119.05,68.973,117.16,67.893z" fill="#f7b346"/></g><g><path d="M101.13,72.513c0,0-3.6,5.42-9.06,6.46c-1.42,0.27-2.94-0.59-4.43-2.02c0,0,5.21-1.03,6.67-3.94 c1.45-2.9-1.74-5.75-1.74-5.75c-1.31,3.52-4.19,5.04-8.47,5.23c-2.6-3.93-4.5-8.19-4.5-8.19v-0.01 c0.55,0.09,1.13,0.14,1.72,0.17c7.26,0.31,10.67-2.73,15.82,1.13C99.54,67.393,100.64,70.113,101.13,72.513z" fill="#fec4b9"/></g><g><path d="M92.57,67.263c0,0,3.19,2.85,1.74,5.75c-1.46,2.91-6.67,3.94-6.67,3.94 c-1.24-1.2-2.45-2.8-3.54-4.46C88.38,72.303,91.26,70.783,92.57,67.263z" fill="#f48ca7"/></g><g><path d="M87.03,112.323l-2.55,5.69h-0.04c-0.34-0.3-3.47-2.96-7.05-4.3 c-3.79-1.42-12.73-3.19-12.73-3.19c-0.71-0.97-1.65-1.98-2.82-2.58c-1.31-0.68-2.8-0.9-4.03-0.94 c1.34-1.51,1.93-3.02,1.77-4.53c0,0,4.63-0.09,7.59,0.96c2.97,1.05,4.82,3.04,7.39,3.87c2.58,0.83,5.51-0.01,7.81,0.64 C84.66,108.593,87.03,112.323,87.03,112.323z" fill="#524956"/></g><g><path d="M64.66,110.523c0,0,8.94,1.77,12.73,3.19c3.58,1.34,6.71,4,7.05,4.3h-29 c-0.96-0.3-1.9-0.61-2.82-0.95c2.6-3.17,3.57-6.47,2.68-9.91c0,0,1.07-0.2,2.51-0.15c1.23,0.04,2.72,0.26,4.03,0.94 C63.01,108.543,63.95,109.553,64.66,110.523z" fill="#5d5560"/></g><g><path d="M59.58,102.473c0.16,1.51-0.43,3.02-1.77,4.53c-1.44-0.05-2.51,0.15-2.51,0.15s-10.42-7-13-7.2 c-0.15-0.01-0.32-0.01-0.5,0c0,0,2.83-3.31,5.91-3.31C50.78,96.643,59.58,102.473,59.58,102.473z" fill="#f7b6ad"/></g><g><path d="M32.85,103.263c0,0,6.09-3.11,8.95-3.31c0.18-0.01,0.35-0.01,0.5,0c2.58,0.2,13,7.2,13,7.2 c0.89,3.44-0.08,6.74-2.68,9.91c-2.06-0.71-4.02-1.49-5.88-2.34c-2.02-0.9-3.94-1.88-5.75-2.92c-0.92-0.53-2.01-0.62-2.94-0.13 l-5.03,2.84c-0.3,0.16-0.62,0.24-0.94,0.24c-0.61,0-1.21-0.29-1.58-0.83c-0.63-0.92-0.34-2.19,0.64-2.75l5.72-3.23l-7.45-0.14 c-0.6-0.01-1.14-0.27-1.54-0.66c-0.39-0.4-0.65-0.94-0.66-1.54c-0.02-1.25,0.97-2.27,2.21-2.29L32.85,103.263z" fill="#fec4b9"/></g><g><path d="M46.72,114.753v3.28H12.38c1.62,0,2.93-1.31,2.93-2.93c0-0.12-0.01-0.24-0.03-0.35h0.01h16.79 H46.72z" fill="#60676b"/></g><g><path d="M78.84,1.003H13.15c-4.63,0-8.38,3.75-8.38,8.37v37.61c0,4.63,3.75,8.38,8.38,8.38h17.32 l-18.46,30.81l42.78-30.81h14.22c-0.76-3.6-1.67-8.54-1.67-11.53c0-4.85,3.1-11.54,4.8-15.15c1.27-2.69,6.24-11.84,15.08-15.99 v-3.32C87.22,4.753,83.46,1.003,78.84,1.003z" fill="#6fceae"/></g><g><path d="M15.28,114.753c0.02,0.11,0.03,0.23,0.03,0.35c0,1.62-1.31,2.93-2.93,2.93s-2.93-1.31-2.93-2.93 c0-0.65,0.21-1.25,0.57-1.74c0.54-0.72,1.39-1.19,2.36-1.19c0.42,0,0.83,0.09,1.19,0.25 C14.49,112.833,15.17,113.713,15.28,114.753z" fill="#604533"/></g><g><path d="M4.59,71.783l8.98,40.64c-0.36-0.16-0.77-0.25-1.19-0.25c-0.97,0-1.82,0.47-2.36,1.19L1,72.583 L4.59,71.783z" fill="#60676b"/></g><g><path d="M31.36,14.573c0,3.78-2.56,6.96-6.04,7.92v26.18c0,0.75-0.51,1.44-1.25,1.57 c-0.56,0.1-1.12,0.11-1.68,0.03c-0.81-0.12-1.43-0.79-1.43-1.61v-2.53h-4.94v-3.48h4.94v-3.97h-4.94v-3.48h4.94v-12.71 c-3.48-0.96-6.04-4.14-6.04-7.92c0-4.55,3.68-8.23,8.22-8.23S31.36,10.023,31.36,14.573z M27.31,14.573 c0-2.31-1.87-4.18-4.17-4.18s-4.17,1.87-4.17,4.18c0,2.3,1.87,4.17,4.17,4.17S27.31,16.873,27.31,14.573z" fill="#ffc05a"/></g></g><g><g><path d="M102.987,68.64c-0.992-8.646-13.041-9.213-16.868-8.505c-3.827,0.709-4.819,0.425-10.399-0.627 c-5.58-1.053-8.38-15.675-8.38-15.675c0,2.99,0.91,7.93,1.67,11.53c0.62,2.95,2.55,5.86,5.25,7.23c1.46,0.73,3.25,1.4,5.34,1.7 c0.55,0.09,1.13,0.14,1.72,0.17c7.26,0.31,10.67-2.73,15.82,1.13c2.4,1.8,3.5,4.52,3.99,6.92c0.57,2.77,0.33,5.1,0.33,5.1 c-1.74,1.58-3.14,3.3-3.96,4.68c-1.62,2.73-2.95,10.2-3.47,13.43c-0.17,1.04-0.48,2.05-0.91,3.02l-6.09,13.58l-2.55,5.69 l-0.01,0.02h2.56c0,0,5.468-13.532,7.658-16.933s2.062-7.229,2.062-7.229s0.709-8.646,4.74-11.765 C105.521,78.988,103.979,77.287,102.987,68.64z" fill="#ffe36e"/></g><g><path d="M121.73,41.733c-0.46-2.58,1.34-4.28,1.08-7.53c-0.25-3.25-9.96-22.84-25.31-23.56 c-3.87-0.18-7.3,0.65-10.28,2.05c0,0,20.222,1.609,26.021,18.829c0,0,0.879,2.987,0.176,5.975 c-0.703,2.987,1.406,6.853,4.393,10.719c2.987,3.866,9.668,69.797-19.24,69.797H125v-40.43v-31.01 C125,46.573,122.19,44.303,121.73,41.733z" fill="#342a3a"/></g></g></g></g><g fill="#3a322b"><path d="M125.538,76.745c-0.171-0.109-2.374-1.496-5.305-2.768c0.353-2.237-0.516-5.773-2.581-6.956 c-1.374-0.79-3.195-0.374-4.546,0.15c0.053-0.68,0.029-1.352-0.111-1.977c-0.669-2.999-12.27-29.969-20.129-34.026 c-6.066-3.132-15.318-3.494-19.089-3.502c1.847-3.449,6.354-10.541,13.709-14.026c0.088-0.025,0.167-0.06,0.243-0.107 c2.827-1.299,6.064-2.065,9.728-1.888c15.089,0.709,24.17,20.235,24.36,22.638c0.114,1.434-0.222,2.505-0.577,3.641 c-0.377,1.207-0.768,2.455-0.492,3.983c0.524,2.911,3.498,5.345,3.624,5.446c0.431,0.35,1.06,0.28,1.406-0.148 c0.348-0.43,0.281-1.06-0.148-1.406c-0.7-0.565-2.587-2.431-2.913-4.246c-0.188-1.046,0.085-1.922,0.433-3.032 c0.378-1.208,0.807-2.576,0.662-4.396c-0.302-3.797-10.346-23.729-26.261-24.478c-3.465-0.157-6.57,0.449-9.334,1.523V9.378 C88.216,4.207,84.009,0,78.838,0H13.149C7.978,0,3.771,4.207,3.771,9.378v37.604c0,5.171,4.207,9.377,9.378,9.377h15.56 l-17.56,29.302c-0.244,0.406-0.169,0.929,0.181,1.25c0.19,0.175,0.433,0.264,0.677,0.264c0.204,0,0.409-0.063,0.584-0.188 l42.522-30.627h13.126c0.876,3.111,2.947,5.799,5.566,7.125c1.641,0.83,3.351,1.386,5.099,1.698 c0.574,1.228,2.223,4.626,4.355,7.864c1.307,1.983,2.543,3.512,3.725,4.646c0.015,0.013,0.028,0.029,0.043,0.041 c1.594,1.517,3.088,2.293,4.496,2.293c0.247,0,0.492-0.023,0.734-0.069c3.705-0.705,6.565-3.219,8.193-5.008 c0.073,0.978,0.057,1.768,0.036,2.2c-1.648,1.547-2.989,3.204-3.842,4.639c-1.655,2.783-2.971,9.826-3.607,13.777 c-0.152,0.948-0.431,1.878-0.828,2.766l-5.38,12c-0.989-1.245-2.548-2.888-4.192-3.353c-1.225-0.348-2.563-0.32-3.854-0.295 c-1.329,0.027-2.708,0.054-3.915-0.333c-1.159-0.372-2.198-1.031-3.297-1.729c-1.212-0.77-2.466-1.564-4.065-2.132 c-2.638-0.936-6.392-1.015-7.581-1.015c-0.019,0-0.037,0-0.055,0c-1.68-1.099-9.092-5.827-12.166-5.827 c-2.947,0-5.563,2.487-6.389,3.359c-2.866,0.399-7.541,2.67-8.718,3.26l-3.192,0.046c-0.87,0.013-1.682,0.363-2.286,0.988 c-0.604,0.626-0.928,1.449-0.911,2.32c0.035,1.749,1.434,3.145,3.183,3.178l3.799,0.072l-2.546,1.436 c-0.71,0.401-1.223,1.086-1.406,1.881c-0.121,0.525-0.079,1.066,0.087,1.568H16.056c-0.303-0.825-0.868-1.517-1.602-1.977 L5.562,71.57c-0.12-0.54-0.658-0.877-1.192-0.761l-3.586,0.793C0.525,71.66,0.3,71.817,0.157,72.041s-0.19,0.495-0.134,0.754 L8.958,113.2c-0.316,0.566-0.512,1.208-0.512,1.901c0,2.168,1.764,3.932,3.931,3.932H46.72c0.553,0,1-0.447,1-1v-1.789 c1.441,0.613,2.934,1.18,4.457,1.719c0.08,0.039,0.16,0.067,0.245,0.083c0.898,0.315,1.792,0.634,2.716,0.923 c0.099,0.031,0.199,0.046,0.298,0.046c0.426,0,0.821-0.274,0.954-0.702c0.165-0.526-0.129-1.088-0.656-1.252 c-0.504-0.158-0.985-0.338-1.481-0.504c1.929-2.774,2.673-5.635,2.229-8.536c0.371-0.025,0.822-0.039,1.321-0.022 c0.002,0,0.004,0.001,0.006,0.001c0.001,0,0.003-0.001,0.004-0.001c1.103,0.039,2.421,0.235,3.563,0.826 c2.461,1.275,3.877,4.732,3.892,4.767c0.157,0.391,0.532,0.628,0.928,0.628c0.124,0,0.25-0.023,0.372-0.072 c0.513-0.206,0.762-0.787,0.557-1.299c-0.019-0.047-0.159-0.387-0.411-0.882c2.885,0.619,7.816,1.74,10.329,2.68 c3.562,1.333,6.739,4.107,6.771,4.135c0.047,0.042,0.104,0.062,0.156,0.093c0.034,0.021,0.059,0.052,0.096,0.069 c0.009,0.004,0.019,0.002,0.029,0.006c0.122,0.051,0.25,0.082,0.379,0.082c0.125,0,0.245-0.031,0.36-0.076 c0.029-0.011,0.056-0.024,0.084-0.038c0.113-0.056,0.218-0.126,0.304-0.223c0.001-0.001,0.002-0.001,0.003-0.002c0,0,0,0,0-0.001 c0.065-0.073,0.12-0.157,0.162-0.251l8.649-19.294c0.47-1.048,0.799-2.146,0.979-3.267c1.029-6.388,2.282-11.275,3.352-13.073 c2.081-3.498,7.648-8.767,12.991-8.964c1.55-0.054,3.258,0.289,4.917,0.8c-0.061,0.008-0.124,0.017-0.174,0.024 c-1.509,0.202-3.218,0.431-4.089,1.721c-1.021,1.514-0.103,2.727,0.446,3.451c0.508,0.67,0.788,1.078,0.64,1.676 c-0.38,1.002-5.113,4.332-8.246,6.536c-4.283,3.014-6.942,4.92-7.619,6.095c-1,1.735-0.485,3.192-0.11,4.257 c0.219,0.622,0.393,1.113,0.288,1.548c-0.12,0.499-0.852,1.104-1.56,1.688c-1.074,0.887-2.292,1.892-2.732,3.416 c-0.415,1.438-0.235,2.689-0.09,3.695c0.097,0.672,0.181,1.253,0.028,1.566c-0.136,0.281-0.43,0.425-0.98,0.675 c-0.69,0.313-1.551,0.704-2.188,1.684c-1.077,1.655-1.108,4.983-1.108,5.357c0,0.552,0.447,0.999,0.999,1c0.001,0,0.001,0,0.001,0 c0.552,0,0.999-0.447,1-0.999c0.001-1.186,0.215-3.393,0.784-4.267c0.32-0.491,0.793-0.706,1.34-0.954 c0.667-0.303,1.497-0.68,1.954-1.625c0.418-0.864,0.282-1.81,0.15-2.724c-0.13-0.899-0.264-1.829,0.032-2.854 c0.269-0.931,1.191-1.691,2.084-2.428c0.961-0.794,1.955-1.614,2.231-2.764c0.241-1.009-0.071-1.896-0.348-2.68 c-0.372-1.057-0.559-1.698-0.043-2.594c0.491-0.851,4.121-3.405,7.038-5.457c5.867-4.128,8.67-6.23,9.03-7.67 c0.393-1.574-0.435-2.664-0.98-3.386c-0.604-0.797-0.566-0.853-0.383-1.124c0.368-0.546,1.604-0.712,2.696-0.858 c1.093-0.146,2.211-0.3,2.954-0.875c2.889,1.243,5.103,2.629,5.143,2.655c0.468,0.299,1.085,0.16,1.381-0.305 C126.139,77.66,126.004,77.042,125.538,76.745z M58.603,103.036c-0.016,0.967-0.434,1.942-1.256,2.958 c-0.776,0-1.424,0.059-1.816,0.109c-1.998-1.332-8.264-5.428-11.663-6.74c0.986-0.81,2.408-1.716,3.838-1.716 C49.642,97.647,55.234,100.842,58.603,103.036z M3.825,72.979l8.449,38.203c-0.583,0.016-1.13,0.163-1.623,0.407L2.192,73.34 L3.825,72.979z M10.446,115.102c0-1.064,0.866-1.931,1.931-1.931c1.065,0,1.932,0.866,1.932,1.931 c0,1.065-0.866,1.932-1.932,1.932C11.312,117.033,10.446,116.167,10.446,115.102z M45.72,117.033H15.78 c0.223-0.391,0.384-0.818,0.462-1.277h15.686c0.015,0.001,0.029,0,0.044,0H45.72V117.033z M36.389,113.756l2.124-1.198 c0.579-0.308,1.318-0.268,1.975,0.111c0.656,0.377,1.349,0.728,2.03,1.087H36.389z M52.265,115.882 c-3.887-1.411-7.506-3.064-10.781-4.948c-1.255-0.721-2.714-0.774-3.93-0.133l-5.028,2.837c-0.414,0.231-0.932,0.114-1.201-0.279 c-0.146-0.213-0.195-0.469-0.137-0.722c0.059-0.252,0.215-0.462,0.44-0.589l6.021-3.396c0.62-0.326,1.34-0.429,2.026-0.289 l2.125,0.435c0.539,0.11,1.069-0.238,1.18-0.779c0.111-0.541-0.238-1.069-0.779-1.18l-2.124-0.435 c-1.142-0.234-2.333-0.063-3.386,0.492l-0.067,0.038l-7.194-0.135c-0.671-0.013-1.206-0.548-1.22-1.218 c-0.007-0.334,0.117-0.649,0.35-0.89c0.231-0.239,0.542-0.374,0.876-0.379l9.397-0.136c0.811-0.012,1.679,0.184,2.427,0.569 l2.316,1.191c0.491,0.253,1.094,0.059,1.347-0.433c0.252-0.491,0.059-1.094-0.433-1.347l-2.315-1.19 c-1.038-0.534-2.197-0.797-3.371-0.791l-1.17,0.017c1.652-0.658,3.253-1.18,4.229-1.246c0.011-0.001,0.022-0.001,0.034-0.002 c0.12-0.007,0.231-0.008,0.33,0.001c1.635,0.128,8.182,4.147,12.17,6.805C55.002,110.513,54.301,113.183,52.265,115.882z M65.224,109.614c-0.755-0.971-1.732-1.942-2.929-2.562c-0.855-0.444-1.769-0.702-2.652-0.858c0.535-0.894,0.845-1.799,0.929-2.71 c1.469,0.033,4.294,0.19,6.268,0.89c1.387,0.492,2.543,1.226,3.661,1.936c1.158,0.734,2.354,1.494,3.758,1.944 c1.523,0.488,3.067,0.456,4.566,0.429c1.199-0.023,2.331-0.046,3.269,0.219c1.375,0.39,3.004,2.383,3.8,3.517l-1.801,4.018 c-1.306-1.005-3.693-2.668-6.35-3.662C74.308,111.491,66.948,109.963,65.224,109.614z M116.658,68.756 c1.087,0.623,1.709,2.943,1.651,4.45c-2.082-0.76-4.356-1.332-6.472-1.352c0.268-0.63,0.565-1.415,0.81-2.271 C113.737,68.993,115.719,68.219,116.658,68.756z M54.791,54.359c-0.21,0-0.414,0.066-0.584,0.188l-38.85,27.981l15.974-26.656 c0.186-0.309,0.19-0.693,0.013-1.007s-0.51-0.507-0.87-0.507H13.149c-4.068,0-7.378-3.31-7.378-7.377V9.378 C5.771,5.31,9.081,2,13.149,2h65.688c4.068,0,7.378,3.31,7.378,7.378v2.679c-8.992,4.485-13.857,13.819-14.98,16.204 c-1.59,3.373-4.898,10.39-4.898,15.576c0,2.244,0.49,5.791,1.445,10.522H54.791z M69.984,55.154 c-1.078-5.142-1.647-9.055-1.647-11.317c0-4.482,2.843-10.755,4.444-14.163c2.593-0.032,12.932,0.052,19.168,3.271 c7.022,3.626,18.484,29.947,19.096,32.685c0.444,1.99-0.826,5.089-1.507,6.437c-1.135,0.223-2.254,0.609-3.338,1.118 c1.353-2.191,2.183-4.323,2.473-6.429c0.076-0.548-0.307-1.052-0.854-1.127c-0.563-0.08-1.053,0.307-1.127,0.854 c-0.372,2.695-1.771,5.484-4.226,8.471c-0.188-2.913-1.098-7.437-4.724-10.156c-3.664-2.748-6.629-2.309-10.061-1.8 c-1.803,0.268-3.845,0.569-6.322,0.466c-2.292-0.098-4.529-0.691-6.65-1.765C72.43,60.547,70.576,57.978,69.984,55.154z M85.882,73.326c3.274-0.475,5.57-1.869,6.937-4.241c0.621,0.894,1.225,2.22,0.592,3.486c-0.899,1.798-3.887,2.882-5.456,3.28 C87.295,75.165,86.601,74.32,85.882,73.326z M91.886,77.992c-0.613,0.117-1.329-0.092-2.122-0.6 c1.811-0.62,4.388-1.832,5.436-3.927c1.774-3.552-1.813-6.811-1.968-6.947c-0.245-0.22-0.583-0.303-0.906-0.225 c-0.321,0.08-0.582,0.313-0.696,0.623c-1.038,2.801-3.289,4.24-7.022,4.532c-1.427-2.232-2.624-4.522-3.348-5.988 c0.004,0,0.008,0.001,0.013,0.001c2.667,0.118,4.811-0.203,6.702-0.485c3.353-0.498,5.568-0.827,8.567,1.421 c2.014,1.511,3.018,3.794,3.511,5.899C99.203,73.435,96.125,77.187,91.886,77.992z" fill="inherit"/><path d="M23.14,9.397c-2.852,0-5.172,2.32-5.172,5.172s2.32,5.172,5.172,5.172s5.172-2.32,5.172-5.172 S25.992,9.397,23.14,9.397z M23.14,17.741c-1.749,0-3.172-1.423-3.172-3.172s1.423-3.172,3.172-3.172s3.172,1.423,3.172,3.172 S24.889,17.741,23.14,17.741z" fill="inherit"/><path d="M23.14,5.347c-5.085,0-9.223,4.138-9.223,9.223c0,3.878,2.45,7.332,6.046,8.651v10.981h-3.947 c-0.553,0-1,0.447-1,1v3.479c0,0.553,0.447,1,1,1h3.947v1.976h-3.947c-0.553,0-1,0.447-1,1v3.479c0,0.553,0.447,1,1,1h3.947v1.529 c0,1.295,0.98,2.412,2.282,2.598c0.296,0.042,0.594,0.063,0.892,0.063c0.371-0.001,0.743-0.033,1.111-0.099 c1.198-0.211,2.068-1.284,2.068-2.552V23.221c3.596-1.319,6.046-4.773,6.046-8.651C32.363,9.484,28.225,5.347,23.14,5.347z M25.053,21.526c-0.435,0.119-0.735,0.515-0.735,0.965v26.184c0,0.285-0.183,0.541-0.416,0.583 c-0.457,0.082-0.916,0.091-1.374,0.023c-0.326-0.046-0.563-0.306-0.563-0.617v-2.529c0-0.553-0.447-1-1-1h-3.947v-1.479h3.947 c0.553,0,1-0.447,1-1v-3.976c0-0.553-0.447-1-1-1h-3.947v-1.479h3.947c0.553,0,1-0.447,1-1V22.491c0-0.45-0.301-0.846-0.735-0.965 c-3.127-0.856-5.311-3.718-5.311-6.957c0-3.982,3.24-7.223,7.223-7.223s7.223,3.24,7.223,7.223 C30.363,17.809,28.179,20.669,25.053,21.526z" fill="inherit"/><path d="M38.419,16.324c0.195,0.195,0.451,0.293,0.707,0.293s0.512-0.098,0.707-0.293l0.877-0.877v1.24 c0,0.553,0.447,1,1,1s1-0.447,1-1v-1.24l0.877,0.877c0.195,0.195,0.451,0.293,0.707,0.293s0.512-0.098,0.707-0.293 c0.391-0.391,0.391-1.023,0-1.414l-1.877-1.877l1.877-1.877c0.391-0.391,0.391-1.023,0-1.414s-1.023-0.391-1.414,0l-0.877,0.877 v-1.24c0-0.553-0.447-1-1-1s-1,0.447-1,1v1.24l-0.877-0.877c-0.391-0.391-1.023-0.391-1.414,0s-0.391,1.023,0,1.414l1.877,1.877 l-1.877,1.877C38.028,15.301,38.028,15.934,38.419,16.324z" fill="inherit"/><path d="M49.323,16.324c0.195,0.195,0.451,0.293,0.707,0.293s0.512-0.098,0.707-0.293l0.877-0.877v1.24 c0,0.553,0.447,1,1,1s1-0.447,1-1v-1.24l0.877,0.877c0.195,0.195,0.451,0.293,0.707,0.293s0.512-0.098,0.707-0.293 c0.391-0.391,0.391-1.023,0-1.414l-1.877-1.877l1.877-1.877c0.391-0.391,0.391-1.023,0-1.414s-1.023-0.391-1.414,0l-0.877,0.877 v-1.24c0-0.553-0.447-1-1-1s-1,0.447-1,1v1.24l-0.877-0.877c-0.391-0.391-1.023-0.391-1.414,0s-0.391,1.023,0,1.414l1.877,1.877 l-1.877,1.877C48.932,15.301,48.932,15.934,49.323,16.324z" fill="inherit"/><path d="M60.227,16.324c0.195,0.195,0.451,0.293,0.707,0.293s0.512-0.098,0.707-0.293l0.878-0.878v1.241 c0,0.553,0.447,1,1,1s1-0.447,1-1v-1.24l0.877,0.877c0.195,0.195,0.451,0.293,0.707,0.293s0.512-0.098,0.707-0.293 c0.391-0.391,0.391-1.023,0-1.414l-1.877-1.877l1.877-1.877c0.391-0.391,0.391-1.023,0-1.414s-1.023-0.391-1.414,0l-0.877,0.877 v-1.24c0-0.553-0.447-1-1-1s-1,0.447-1,1v1.241l-0.878-0.878c-0.391-0.391-1.023-0.391-1.414,0s-0.391,1.023,0,1.414l1.877,1.877 l-1.877,1.877C59.837,15.301,59.837,15.934,60.227,16.324z" fill="inherit"/><path d="M71.133,16.324c0.195,0.195,0.451,0.293,0.707,0.293s0.512-0.098,0.707-0.293l0.877-0.877v1.24 c0,0.553,0.447,1,1,1s1-0.447,1-1v-1.24l0.877,0.877c0.195,0.195,0.451,0.293,0.707,0.293s0.512-0.098,0.707-0.293 c0.391-0.391,0.391-1.023,0-1.414l-1.877-1.877l1.877-1.877c0.391-0.391,0.391-1.023,0-1.414s-1.023-0.391-1.414,0l-0.877,0.877 v-1.24c0-0.553-0.447-1-1-1s-1,0.447-1,1v1.24l-0.877-0.877c-0.391-0.391-1.023-0.391-1.414,0s-0.391,1.023,0,1.414l1.877,1.877 l-1.877,1.877C70.742,15.301,70.742,15.934,71.133,16.324z" fill="inherit"/><path d="M39.126,27.908h12.15c0.553,0,1-0.447,1-1s-0.447-1-1-1h-12.15c-0.553,0-1,0.447-1,1 S38.573,27.908,39.126,27.908z" fill="inherit"/><path d="M58.109,27.908h10.043c0.553,0,1-0.447,1-1s-0.447-1-1-1H58.109c-0.553,0-1,0.447-1,1 S57.556,27.908,58.109,27.908z" fill="inherit"/><path d="M66.656,34.157c0-0.553-0.447-1-1-1h-26.53c-0.553,0-1,0.447-1,1s0.447,1,1,1h26.53 C66.209,35.157,66.656,34.71,66.656,34.157z" fill="inherit"/><path d="M64.23,38.862H39.126c-0.553,0-1,0.447-1,1s0.447,1,1,1H64.23c0.553,0,1-0.447,1-1 S64.783,38.862,64.23,38.862z" fill="inherit"/></g></g></svg>